<svg width="50" height="50" viewBox="0 0 50 50" fill="none" xmlns="http://www.w3.org/2000/svg">
<path d="M33.2466 24.0226L22.8643 16.4755C22.4832 16.1993 21.9774 16.1577 21.5598 16.3723C21.1389 16.5853 20.876 17.0179 20.876 17.4854V32.5748C20.876 33.0473 21.1389 33.4782 21.5598 33.6912C21.7378 33.7811 21.9325 33.826 22.1288 33.826C22.3851 33.826 22.6446 33.7445 22.8643 33.5831L33.2466 26.0425C33.5744 25.8013 33.7657 25.4286 33.7657 25.0326C33.7674 24.6299 33.5711 24.2589 33.2466 24.0226Z" fill="white"/>
<path d="M25.0008 0.00341797C11.191 0.00341797 0 11.1944 0 25.0043C0 38.8091 11.191 49.9968 25.0008 49.9968C38.8074 49.9968 50 38.8075 50 25.0043C50.0017 11.1944 38.8074 0.00341797 25.0008 0.00341797ZM25.0008 45.8255C13.5004 45.8255 4.17623 36.5064 4.17623 25.0043C4.17623 13.5071 13.5004 4.17632 25.0008 4.17632C36.4996 4.17632 45.8221 13.5055 45.8221 25.0043C45.8238 36.5064 36.4996 45.8255 25.0008 45.8255Z" fill="white"/>
</svg>
